<svg xmlns="http://www.w3.org/2000/svg" viewBox="0 13.399999618530273 54.25 35.30000305175781" data-asc="0.968" width="54.25" height="35.30000305175781"><defs/><g><g fill="#3a88fe"><g transform="translate(0, 0)"><path d="M9.65 48.70Q6.70 48.70 4.13 47.40Q1.55 46.10 0 43.70L2.15 41.20Q3.60 43.30 5.50 44.40Q7.40 45.50 9.70 45.50Q16.20 45.50 16.20 37.80L16.20 16.60L3.40 16.60L3.40 13.40L19.85 13.40L19.85 37.65Q19.85 43.20 17.27 45.95Q14.70 48.70 9.65 48.70ZM30.95 48.40L30.95 13.40L34.65 13.40L34.65 45.20L54.25 45.20L54.25 48.40L30.95 48.40Z"/></g><g transform="translate(0, 75.05999999999999)"><path d=""/></g></g></g></svg>