<svg xmlns="http://www.w3.org/2000/svg" version="1.1" xmlns:xlink="http://www.w3.org/1999/xlink" width="200" height="200"><svg xmlns="http://www.w3.org/2000/svg" version="1.1" xmlns:xlink="http://www.w3.org/1999/xlink" viewBox="0 0 200 200"><defs><linearGradient id="SvgjsLinearGradient1001" gradientTransform="rotate(256 0.5 0.5)"><stop offset="0%" stop-color="#dee90b"></stop><stop offset="100%" stop-color="#2fa98e"></stop></linearGradient></defs><g><g fill="#4b4885" transform="matrix(3.7547361988184966,0,0,3.7547361988184966,8.683523153841051,126.70043255389648)" stroke="#4b4885" stroke-width="0.2"><path d="M6.74-4.46L6.74-14.22L10.16-14.22L10.16-4.46Q10.16-3.11 9.53-2.04Q8.90-0.98 7.77-0.39Q6.64 0.20 5.25 0.20L5.25 0.20Q2.93 0.20 1.64-0.98Q0.35-2.15 0.35-4.30L0.35-4.30L3.79-4.30Q3.79-3.32 4.13-2.88Q4.46-2.44 5.25-2.44L5.25-2.44Q5.97-2.44 6.35-2.97Q6.74-3.51 6.74-4.46L6.74-4.46ZM15.74-14.22L15.74-2.64L21.71-2.64L21.71 0L12.31 0L12.31-14.22L15.74-14.22ZM32.25 0L31.42-2.66L26.72-2.66L25.90 0L22.24 0L27.45-14.22L30.67-14.22L35.93 0L32.25 0ZM29.06-10.23L27.54-5.30L30.60-5.30L29.06-10.23ZM44.85-4.81L48.26-4.81Q48.19-3.33 47.46-2.19Q46.73-1.05 45.41-0.43Q44.08 0.20 42.38 0.20L42.38 0.20Q39.58 0.20 37.97-1.63Q36.36-3.46 36.36-6.79L36.36-6.79L36.36-7.49Q36.36-9.58 37.08-11.15Q37.81-12.71 39.18-13.57Q40.55-14.42 42.34-14.42L42.34-14.42Q44.93-14.42 46.50-13.06Q48.08-11.70 48.29-9.31L48.29-9.31L44.87-9.31Q44.83-10.61 44.22-11.17Q43.60-11.74 42.34-11.74L42.34-11.74Q41.06-11.74 40.47-10.78Q39.87-9.82 39.84-7.72L39.84-7.72L39.84-6.72Q39.84-4.44 40.42-3.47Q40.99-2.49 42.38-2.49L42.38-2.49Q43.56-2.49 44.19-3.05Q44.81-3.60 44.85-4.81L44.85-4.81Z"></path></g></g></svg><style>@media (prefers-color-scheme: light) { :root { filter: none; } }
@media (prefers-color-scheme: dark) { :root { filter: none; } }
</style></svg>